<?xml version="1.0" encoding="utf-8"?>
<!-- Generator: Adobe Illustrator 14.0.0, SVG Export Plug-In . SVG Version: 6.00 Build 43363)  -->
<!DOCTYPE svg PUBLIC "-//W3C//DTD SVG 1.1//EN" "http://www.w3.org/Graphics/SVG/1.1/DTD/svg11.dtd">
<svg version="1.1" id="Layer_1" xmlns="http://www.w3.org/2000/svg" xmlns:xlink="http://www.w3.org/1999/xlink" x="0px" y="0px"
	 width="800px" height="600px" viewBox="0 0 800 600" enable-background="new 0 0 800 600" xml:space="preserve">
<polygon fill="#FFFFFF" stroke="#000000" points="195.541,241.377 181.606,180.721 192.262,135.639 210.295,135.639 
	219.312,178.262 213.574,241.377 236.524,241.377 236.524,179.082 244.721,135.639 257.017,135.639 261.935,178.262 
	258.656,241.377 279.147,269.246 279.147,303.672 261.935,320.885 279.147,336.459 337.344,336.459 366.853,359.41 384.065,384 
	392.262,370.885 408.655,372.524 412.754,384 416.033,397.935 403.737,410.229 390.623,410.229 400,434 388.164,462.688 
	362.754,488.918 283.246,488.918 193.902,483.181 164.394,461.869 145.541,412.688 149.639,382.36 170.951,352.033 184.885,337.278 
	207.836,334.819 205.377,321.705 187.344,316.787 176.688,300 173.41,274.164 180.787,256.131 "/>
</svg>
