<?xml version="1.0" encoding="utf-8"?>
<!-- Generator: Adobe Illustrator 26.0.2, SVG Export Plug-In . SVG Version: 6.00 Build 0)  -->
<svg version="1.1" id="Layer_1" xmlns="http://www.w3.org/2000/svg" xmlns:xlink="http://www.w3.org/1999/xlink" x="0px" y="0px"
	 viewBox="0 0 800 600" style="enable-background:new 0 0 800 600;" xml:space="preserve">
<style type="text/css">
	.st0{fill:#FFFFFF;stroke:#000000;}
</style>
<polygon class="st0" points="208.6,206.6 194.7,145.9 205.4,100.8 223.4,100.8 232.4,143.5 226.7,206.6 249.6,206.6 249.6,144.3 
	257.8,100.8 270.1,100.8 275,143.5 271.8,206.6 292.2,234.4 292.2,268.9 275,286.1 292.2,301.7 350.4,301.7 380,324.6 413,358.1 
	413,358.1 413,358.1 413,358.1 413,358.1 413,358.1 413,358.1 413.1,399.2 401.3,427.9 375.9,454.1 296.3,454.1 207,448.4 
	177.5,427.1 158.6,377.9 162.7,347.6 184.1,317.2 198,302.5 220.9,300 218.5,286.9 200.4,282 189.8,265.2 186.5,239.4 193.9,221.3 
	"/>
</svg>
