<?xml version="1.0" encoding="utf-8"?>
<!-- Generator: Adobe Illustrator 26.0.2, SVG Export Plug-In . SVG Version: 6.00 Build 0)  -->
<svg version="1.1" id="Layer_1" xmlns="http://www.w3.org/2000/svg" xmlns:xlink="http://www.w3.org/1999/xlink" x="0px" y="0px"
	 viewBox="0 0 800 600" style="enable-background:new 0 0 800 600;" xml:space="preserve">
<style type="text/css">
	.st0{fill:#FFFFFF;stroke:#000000;}
</style>
<polygon class="st0" points="195.5,241.4 181.6,180.7 192.3,135.6 210.3,135.6 219.3,178.3 213.6,241.4 236.5,241.4 236.5,179.1 
	244.7,135.6 257,135.6 261.9,178.3 258.7,241.4 279.1,269.2 279.1,303.7 261.9,320.9 279.1,336.5 337.3,336.5 366.9,359.4 
	384.1,384 392.3,370.9 408.7,372.5 412.8,384 416,397.9 403.7,410.2 390.6,410.2 400,434 388.2,462.7 362.8,488.9 283.2,488.9 
	193.9,483.2 164.4,461.9 145.5,412.7 149.6,382.4 171,352 184.9,337.3 207.8,334.8 205.4,321.7 187.3,316.8 176.7,300 173.4,274.2 
	180.8,256.1 "/>
</svg>
